<?xml version="1.0" standalone="no"?>
<!DOCTYPE svg PUBLIC "-//W3C//DTD SVG 20010904//EN"
 "http://www.w3.org/TR/2001/REC-SVG-20010904/DTD/svg10.dtd">
<svg version="1.0" xmlns="http://www.w3.org/2000/svg"
 width="427.000000pt" height="462.000000pt" viewBox="0 0 427.000000 462.000000"
 preserveAspectRatio="xMidYMid meet">

<g transform="translate(0.000000,462.000000) scale(0.100000,-0.100000)"
>
<path d="M390 4130 l0 -365 680 -680 680 -680 182 183 183 182 -863 863 -862
862 0 -365z"/>
<path d="M2853 3268 l-1153 -1153 -655 655 -655 655 0 -1663 0 -1662 255 0
255 0 0 1035 c0 569 3 1035 7 1035 5 0 183 -175 398 -390 l390 -390 1158 1158
1157 1157 -2 358 -3 357 -1152 -1152z"/>
<path d="M2910 2365 l-1095 -1095 182 -182 181 -181 661 658 661 658 0 -1061
0 -1062 255 0 255 0 0 1680 c0 924 -1 1680 -3 1680 -1 0 -495 -493 -1097
-1095z"/>
</g>
</svg>
